<svg width="188" height="187" viewBox="0 0 188 187" fill="none" xmlns="http://www.w3.org/2000/svg">
<path id="Ellipse 4" d="M183.454 66.7456C185.214 72.5022 186.426 78.4953 187.032 84.6654L186.037 84.7631C186.329 87.7373 186.478 90.7534 186.478 93.8044C186.478 96.8555 186.329 99.8715 186.037 102.846L187.032 102.943C186.426 109.113 185.214 115.107 183.454 120.863L182.498 120.571C180.718 126.395 178.372 131.974 175.524 137.245L176.403 137.721C173.492 143.109 170.061 148.18 166.177 152.865L165.408 152.227C161.556 156.874 157.254 161.139 152.568 164.956L153.2 165.731C148.486 169.57 143.389 172.96 137.974 175.835L137.505 174.952C132.217 177.759 126.623 180.071 120.785 181.824L121.072 182.782C115.31 184.513 109.313 185.705 103.14 186.301L103.044 185.305C100.068 185.592 97.0516 185.739 93.9999 185.739C90.9483 185.739 87.9315 185.592 84.9562 185.305L84.8602 186.301C78.6872 185.705 72.6899 184.513 66.9276 182.782L67.2152 181.824C61.3773 180.071 55.7831 177.759 50.4953 174.952L50.0264 175.835C44.6109 172.96 39.5135 169.57 34.8002 165.731L35.4317 164.956C30.746 161.139 26.4441 156.874 22.5924 152.227L21.8224 152.865C17.939 148.18 14.5081 143.109 11.5965 137.721L12.4763 137.245C9.628 131.974 7.28212 126.395 5.50212 120.571L4.54579 120.863C2.78634 115.107 1.57368 109.113 0.967924 102.943L1.96314 102.846C1.67114 99.8715 1.52167 96.8555 1.52167 93.8044C1.52167 90.7534 1.67114 87.7373 1.96314 84.7631L0.967926 84.6654C1.57369 78.4953 2.78635 72.5021 4.54579 66.7456L5.50212 67.0379C7.28213 61.214 9.62801 55.6348 12.4763 50.3635L11.5965 49.8881C14.5081 44.4994 17.939 39.4292 21.8224 34.7437L22.5924 35.3818C26.4441 30.7346 30.746 26.4697 35.4317 22.6533L34.8002 21.8779C39.5134 18.0391 44.6109 14.6492 50.0264 11.7738L50.4953 12.657C55.7831 9.84942 61.3773 7.53779 67.2152 5.78451L66.9276 4.82677C72.6899 3.09618 78.6872 1.90372 84.8602 1.30819L84.9562 2.30357C87.9315 2.01653 90.9483 1.86963 93.9999 1.86963C97.0516 1.86963 100.068 2.01653 103.044 2.30357L103.14 1.30819C109.313 1.90372 115.31 3.09618 121.072 4.82677L120.785 5.78451C126.623 7.53779 132.217 9.84941 137.505 12.657L137.974 11.7738C143.389 14.6492 148.486 18.0391 153.2 21.8779L152.568 22.6533C157.254 26.4697 161.556 30.7346 165.408 35.3818L166.177 34.7437C170.061 39.4292 173.492 44.4994 176.403 49.8881L175.524 50.3635C178.372 55.6348 180.718 61.214 182.498 67.0379L183.454 66.7456Z" stroke="#2E3A47" stroke-width="2" stroke-linejoin="round" 
stroke-dasharray="18 18"/>
</svg>
